# xmcd CD database file
#
# Track frame offsets:
#	150
#	9636
#	28627
#	48105
#	71105
#	83381
#	94671
#	123278
#	177713
#	199649
#
# Disc length: 2994 seconds
#
# Revision: 0
# Processed by: cddbd v1.5.2PL0 Copyright (c) Steve Scherf et al.
# Submitted via: CDex 1.51
#
DISCID=790bb00a
DTITLE=The Low Country Messiahs - Festival
DYEAR=2004
DGENRE=Blues
TTITLE0=How Many Miles to Babylon
TTITLE1=Rotgut
TTITLE2=As I Lay Dying
TTITLE3=Pigmeat
TTITLE4=Chesapeake Ohio
TTITLE5=Moonbog Song
TTITLE6=Black Ghost
TTITLE7=Are You Washed in the Blood
TTITLE8=O'er the Crossing
TTITLE9=Chariot
EXTD=YEAR: 2004
EXTT0=
EXTT1=
EXTT2=
EXTT3=
EXTT4=
EXTT5=
EXTT6=
EXTT7=
EXTT8=
EXTT9=
PLAYORDER=
